<?xml version="1.0" encoding="iso-8859-1"?>
<!-- Uploaded to: SVG Repo, www.svgrepo.com, Generator: SVG Repo Mixer Tools -->
<!DOCTYPE svg PUBLIC "-//W3C//DTD SVG 1.1//EN" "http://www.w3.org/Graphics/SVG/1.1/DTD/svg11.dtd">
<svg fill="#000000" version="1.1" id="Capa_1" xmlns="http://www.w3.org/2000/svg" xmlns:xlink="http://www.w3.org/1999/xlink" 
	 width="800px" height="800px" viewBox="0 0 600.801 600.801"
	 xml:space="preserve">
<g>
	<g>
		<path d="M542.166,229.165H58.635c-16.279,0-31.914,6.892-42.895,18.908C4.737,260.114-0.732,276.345,0.734,292.604
			c4.154,46.036,22.405,90.355,52.781,128.167c25.49,31.73,59.006,58.253,97.644,77.397c4.708,27.366,28.61,48.254,57.299,48.254
			h183.886c28.689,0,52.592-20.888,57.299-48.254c38.637-19.145,72.154-45.667,97.645-77.397
			c30.375-37.812,48.627-82.131,52.779-128.167c1.467-16.259-4.002-32.49-15.006-44.531
			C574.08,236.057,558.445,229.165,542.166,229.165z M407.645,480.168v8.115c0,8.449-6.85,15.3-15.301,15.3H208.458
			c-8.45,0-15.3-6.851-15.3-15.3v-8.115c0-6.144-3.687-11.664-9.333-14.085c-53.153-22.79-95.683-60.68-119.677-106.976h472.506
			c-23.996,46.296-66.525,84.186-119.678,106.976C411.33,468.504,407.645,474.024,407.645,480.168z M47.994,316.267
			c-2.199-8.98-3.75-18.162-4.593-27.511c-0.811-8.986,6.21-16.751,15.234-16.751h483.533c9.023,0,16.045,7.765,15.232,16.751
			c-0.842,9.349-2.393,18.53-4.592,27.511H47.994z"/>
		<path d="M392.344,546.923H208.458c-28.55,0-52.795-20.349-57.748-48.419c-38.516-19.123-72.255-45.89-97.584-77.419
			C22.688,383.196,4.399,338.784,0.236,292.649c-1.479-16.399,4.037-32.77,15.135-44.914c11.075-12.12,26.844-19.071,43.264-19.071
			h483.531c16.42,0,32.188,6.951,43.264,19.071c11.098,12.144,16.614,28.514,15.135,44.914
			c-4.161,46.133-22.449,90.545-52.888,128.436c-25.327,31.527-59.067,58.294-97.585,77.419
			C445.14,526.574,420.895,546.923,392.344,546.923z M58.635,229.665c-16.139,0-31.639,6.833-42.525,18.746
			C5.201,260.348-0.222,276.439,1.232,292.56c4.145,45.938,22.359,90.165,52.672,127.898c25.288,31.479,58.995,58.196,97.476,77.263
			l0.228,0.113l0.043,0.25c4.769,27.72,28.659,47.839,56.806,47.839h183.886c28.147,0,52.038-20.119,56.806-47.839l0.043-0.25
			l0.229-0.113c38.482-19.068,72.189-45.785,97.477-77.263c30.314-37.735,48.527-81.963,52.671-127.898
			c1.454-16.12-3.968-32.212-14.877-44.149c-10.886-11.913-26.386-18.746-42.525-18.746H58.635z M392.344,504.083H208.458
			c-8.712,0-15.8-7.088-15.8-15.8v-8.115c0-5.925-3.544-11.273-9.03-13.625c-53.362-22.88-95.952-60.953-119.924-107.205
			l-0.378-0.73h474.151l-0.378,0.73c-23.974,46.252-66.564,84.325-119.925,107.205c-5.485,2.352-9.029,7.699-9.029,13.625v8.115
			C408.145,496.995,401.057,504.083,392.344,504.083z M64.972,359.607c23.935,45.717,66.182,83.349,119.05,106.016
			c5.854,2.51,9.636,8.219,9.636,14.545v8.115c0,8.161,6.639,14.8,14.8,14.8h183.886c8.161,0,14.801-6.639,14.801-14.8v-8.115
			c0-6.326,3.782-12.035,9.635-14.545c52.867-22.667,95.114-60.299,119.051-106.016H64.972z M553.201,316.767H47.602l-0.094-0.381
			c-2.224-9.081-3.773-18.362-4.605-27.585c-0.401-4.446,1.09-8.88,4.092-12.165c3.023-3.309,7.157-5.131,11.64-5.131h483.533
			c4.483,0,8.617,1.822,11.641,5.131c3.001,3.285,4.492,7.719,4.09,12.165c-0.83,9.217-2.379,18.498-4.604,27.585L553.201,316.767z
			 M48.387,315.767h504.029c2.163-8.916,3.673-18.017,4.486-27.056c0.377-4.167-1.021-8.322-3.832-11.4
			c-2.832-3.1-6.704-4.806-10.902-4.806H58.635c-4.198,0-8.07,1.707-10.902,4.806c-2.812,3.078-4.21,7.233-3.834,11.4
			C44.715,297.755,46.225,306.855,48.387,315.767z"/>
	</g>
	<g>
		<path d="M169.734,133.492c-7.951-8.275-22.371-18.139-45.914-18.139c-13.135,0-22.812-4.4-29.586-13.451
			c-6.423-8.583-8.701-19.427-8.701-26.104c0-11.792-9.53-21.359-21.309-21.42c-11.956-0.061-21.626,10.078-21.529,22.033
			c0.145,17.815,6.566,36.895,17.24,51.158c10.455,13.971,30.025,30.624,63.886,30.624c10.143,0,13.74,3.671,14.922,4.877
			c2.687,2.741,4.757,7.714,6.195,12.594c1.904,6.464,7.9,10.859,14.64,10.859h12.664c9.923,0,17.244-9.303,14.864-18.937
			C184.358,156.461,179.227,143.371,169.734,133.492z"/>
		<path d="M172.242,187.023h-12.664c-6.957,0-13.174-4.613-15.119-11.218c-1.19-4.038-3.21-9.464-6.073-12.385
			c-1.147-1.17-4.635-4.727-14.565-4.727c-34.069,0-53.764-16.763-64.287-30.824c-10.712-14.315-17.195-33.551-17.34-51.454
			c-0.048-5.95,2.345-11.803,6.565-16.057c4.145-4.179,9.599-6.48,15.358-6.48l0.109,0c12.024,0.062,21.806,9.895,21.806,21.92
			c0,6.602,2.253,17.321,8.602,25.805c6.673,8.916,16.22,13.25,29.186,13.25c23.721,0,38.257,9.947,46.274,18.292
			c8.056,8.383,13.942,19.931,17.497,34.321c1.169,4.731,0.114,9.648-2.895,13.49C181.678,184.812,177.138,187.023,172.242,187.023z
			 M64.118,54.877c-5.49,0-10.692,2.197-14.648,6.185c-4.034,4.066-6.321,9.66-6.275,15.345
			c0.144,17.698,6.551,36.712,17.141,50.862c10.386,13.879,29.831,30.424,63.486,30.424c10.35,0,14.06,3.783,15.278,5.026
			c3.008,3.069,5.097,8.657,6.319,12.803c1.821,6.183,7.644,10.501,14.16,10.501h12.664c4.586,0,8.839-2.071,11.667-5.683
			c2.817-3.599,3.806-8.203,2.711-12.633c-3.512-14.218-9.314-25.613-17.247-33.869c-7.883-8.205-22.185-17.985-45.554-17.985
			c-13.303,0-23.111-4.465-29.987-13.651c-6.496-8.681-8.801-19.649-8.801-26.404c0-11.476-9.336-20.861-20.811-20.92L64.118,54.877
			z"/>
	</g>
	<g>
		<path d="M320.838,133.492c-7.951-8.275-22.371-18.139-45.914-18.139c-13.135,0-22.813-4.4-29.586-13.451
			c-6.423-8.583-8.702-19.427-8.702-26.104c0-11.792-9.53-21.359-21.309-21.42c-11.956-0.061-21.625,10.078-21.529,22.033
			c0.145,17.815,6.566,36.895,17.24,51.158c10.455,13.97,30.024,30.624,63.885,30.624c10.143,0,13.74,3.671,14.922,4.877
			c2.687,2.741,4.757,7.714,6.195,12.594c1.905,6.464,7.902,10.859,14.64,10.859h12.664c9.922,0,17.244-9.303,14.863-18.937
			C335.461,156.461,330.33,143.371,320.838,133.492z"/>
		<path d="M323.346,187.023h-12.664c-6.956,0-13.173-4.613-15.12-11.218c-1.19-4.037-3.209-9.463-6.073-12.385
			c-1.146-1.169-4.633-4.727-14.565-4.727c-34.066,0-53.762-16.763-64.286-30.824c-10.712-14.315-17.195-33.551-17.34-51.454
			c-0.048-5.95,2.345-11.803,6.565-16.058c4.145-4.179,9.599-6.48,15.357-6.48l0.109,0c12.024,0.062,21.806,9.895,21.806,21.92
			c0,6.601,2.253,17.32,8.602,25.805c6.673,8.916,16.22,13.25,29.186,13.25c23.72,0,38.257,9.947,46.274,18.292
			c8.056,8.383,13.941,19.93,17.496,34.321c1.169,4.73,0.114,9.647-2.894,13.489C332.781,184.812,328.242,187.023,323.346,187.023z
			 M215.221,54.877c-5.49,0-10.692,2.196-14.647,6.185c-4.034,4.066-6.321,9.659-6.275,15.345
			c0.144,17.698,6.551,36.712,17.141,50.862c10.387,13.879,29.832,30.424,63.485,30.424c10.352,0,14.061,3.784,15.279,5.027
			c3.008,3.069,5.096,8.656,6.318,12.803c1.822,6.183,7.645,10.5,14.161,10.5h12.664c4.587,0,8.839-2.072,11.667-5.684
			c2.817-3.598,3.806-8.203,2.711-12.632c-3.512-14.218-9.314-25.613-17.246-33.869c-7.884-8.205-22.186-17.985-45.554-17.985
			c-13.303,0-23.112-4.465-29.987-13.651c-6.496-8.681-8.801-19.649-8.801-26.404c0-11.476-9.336-20.861-20.811-20.92
			L215.221,54.877z"/>
	</g>
</g>
</svg>